<svg width="56.000000" height="56.016464" viewBox="0 0 56 56.0165" fill="none" xmlns="http://www.w3.org/2000/svg" xmlns:xlink="http://www.w3.org/1999/xlink">
	<desc>
			Created with Pixso.
	</desc>
	<defs/>
	<path id="Vector" d="M27.93 1.9e-6L28.06 1.9e-6C43.49 1.9e-6 56 12.51 56 27.94L56 28.07C56 43.5 43.49 56.01 28.06 56.01L27.93 56.01C12.5 56.01 0 43.5 0 28.07L0 27.94C0 12.51 12.5 1.9e-6 27.93 1.9e-6Z" fill="#007EBB" fillOpacity="1.000000" fillRule="evenodd"/>
	<path id="Vector" d="M13.35 18.62C12.61 17.93 12.25 17.08 12.25 16.08C12.25 15.07 12.62 14.18 13.35 13.49C14.09 12.81 15.04 12.47 16.2 12.47C17.37 12.47 18.28 12.81 19.01 13.49C19.75 14.18 20.12 15.04 20.12 16.08C20.12 17.11 19.75 17.93 19.01 18.62C18.28 19.3 17.34 19.65 16.2 19.65C15.06 19.65 14.09 19.3 13.35 18.62ZM19.5 22.55L19.5 43.54L12.86 43.54L12.86 22.55L19.5 22.55Z" fill="#FEFFFC" fillOpacity="1.000000" fillRule="nonzero"/>
	<path id="Vector" d="M41.58 24.62C43.03 26.19 43.75 28.34 43.75 31.09L43.75 43.17L37.45 43.17L37.45 31.94C37.45 30.56 37.09 29.48 36.37 28.72C35.66 27.95 34.69 27.57 33.48 27.57C32.27 27.57 31.31 27.95 30.59 28.72C29.88 29.48 29.52 30.56 29.52 31.94L29.52 43.17L23.18 43.17L23.18 22.49L29.52 22.49L29.52 25.23C30.16 24.32 31.02 23.59 32.11 23.06C33.2 22.53 34.42 22.26 35.78 22.26C38.2 22.26 40.14 23.05 41.58 24.62Z" fill="#FEFFFC" fillOpacity="1.000000" fillRule="nonzero"/>
</svg>
