<svg width="32.000000" height="32.000000" viewBox="0 0 32 32" fill="none" xmlns="http://www.w3.org/2000/svg" xmlns:xlink="http://www.w3.org/1999/xlink">
	<desc>
			Created with Pixso.
	</desc>
	<defs>
		<clipPath id="clip70_9950">
			<rect id="ChatControl logo" rx="-0.030238" width="31.939524" height="31.939524" transform="translate(0.030238 0.030238)" fill="white" fillOpacity="0"/>
		</clipPath>
	</defs>
	<g clip-path="url(#clip70_9950)">
		<mask id="mask70_9947" mask-type="alpha" maskUnits="userSpaceOnUse" x="0.846680" y="0.846680" width="30.309326" height="30.331207">
			<path id="Vector" d="M23.31 24.52C22.07 25.46 21.55 25.97 19.74 26.59C16.72 27.62 12.63 27.37 9.97 25.45C9.46 25.09 9.52 25.04 8.88 25.33C8.3 25.58 5.86 26.65 5.48 26.44C4.88 26.21 5.29 25.45 5.48 24.74C6.69 20.13 6.61 23.11 5.41 19.61C4.18 16.05 5 11.53 7.44 8.81C12.55 3.09 20.85 3.88 24.83 9.14C25.31 9.78 26.03 11.42 27.57 10.73C28.67 10.24 29.92 9.71 28.95 8.15C28.38 7.23 27.69 6.28 26.94 5.49C25.06 3.52 22.38 1.96 19.54 1.28C13.04 -0.28 6.99 2.43 3.38 7.65C0.51 11.78 0.01 17.64 2.21 22.32C2.48 22.89 2.71 23.4 3 23.86C3.21 24.19 3.36 24.28 3.26 24.7C3.06 25.52 2 28.76 2.05 29.26C2.12 29.87 2.67 30.34 3.46 30.16C3.89 30.05 4.61 29.67 5.06 29.49C8.02 28.33 7.06 28.38 8.27 29.08C10.45 30.33 12.83 31.09 15.49 31.17C19.04 31.27 22.05 30.33 24.95 28.26C26.36 27.25 27.66 25.88 28.68 24.33C29.04 23.77 30 22.45 29.69 21.61C29.37 20.74 27.68 20.29 27.19 20.34C25.83 20.45 25.87 21.85 24.44 23.39C24.12 23.74 23.68 24.23 23.31 24.52Z" fill="#E5EDFF" fillOpacity="1.000000" fillRule="evenodd"/>
			<path id="Vector" d="M14.79 7.73C9.38 8.45 6.22 14.08 8.25 19.19C8.54 19.92 9.02 20.71 9.44 21.22C13.03 25.54 19.36 25.17 22.5 21.21C22.83 20.79 23.7 19.68 23.51 19.08C23.33 18.51 21.59 18.06 21.33 18.1C20.85 18.18 20.72 18.51 20.5 18.89C18.78 21.81 13.68 22.64 11.29 18.64C10.38 17.12 10.37 15.16 11.2 13.54C12.43 11.15 15.25 10.01 17.74 10.91C18.15 11.05 18.44 11.21 18.83 11.43C19.09 11.58 19.08 11.61 19.29 11.77C20.56 12.76 20.55 13.76 21.56 13.42C21.88 13.31 22.31 13.09 22.68 12.93C24.06 12.3 22.76 11.02 21.9 10.13C20.16 8.29 17.55 7.36 14.79 7.73Z" fill="#E5EDFF" fillOpacity="1.000000" fillRule="evenodd"/>
			<path id="Vector" d="M29.19 12.16C26.96 12.76 26.98 13.01 27.17 15.16C27.24 15.93 27.07 17.07 27.35 17.66C27.7 18.39 28.21 18.44 29.11 18.63C31.35 19.1 31.17 17.24 31.13 15.49C31.11 14.17 31.08 11.65 29.19 12.16Z" fill="#E5EDFF" fillOpacity="1.000000" fillRule="evenodd"/>
		</mask>
		<g mask="url(#mask70_9947)">
			<rect id="Rectangle 40997" x="-1.632874" y="-1.209534" width="34.410954" height="34.410954" fill="#0F4AA0" fillOpacity="1.000000"/>
		</g>
	</g>
</svg>
