<svg width="20.000000" height="20.000000" viewBox="0 0 20 20" fill="none" xmlns="http://www.w3.org/2000/svg" xmlns:xlink="http://www.w3.org/1999/xlink">
	<desc>
			Created with Pixso.
	</desc>
	<defs/>
	<path id="Vector" d="M16.26 2.2C16.58 2.11 16.91 2.19 16.91 2.19C17.24 2.27 17.48 2.51 17.48 2.51C17.72 2.75 17.8 3.08 17.8 3.08C17.89 3.41 17.79 3.74 17.79 3.74L13.69 18.3C13.59 18.67 13.28 18.93 13.28 18.93C12.98 19.18 12.59 19.21 12.59 19.21C12.19 19.24 11.85 19.04 11.85 19.04C11.51 18.84 11.35 18.48 11.35 18.48L8.19 11.8L1.5 8.64C1.15 8.48 0.95 8.14 0.95 8.14C0.75 7.8 0.78 7.4 0.78 7.4C0.81 7.01 1.06 6.71 1.06 6.71C1.32 6.4 1.7 6.3 1.7 6.3L16.25 2.2L16.26 2.2ZM16.59 3.4L2.03 7.5L2.04 7.51L8.53 10.58L11.75 7.36C11.85 7.25 11.99 7.19 12.13 7.18C12.15 7.18 12.17 7.17 12.19 7.17C12.35 7.17 12.51 7.24 12.63 7.35L12.63 7.36C12.75 7.47 12.82 7.63 12.82 7.8C12.82 7.97 12.75 8.12 12.63 8.24L9.41 11.46L12.49 17.96L12.49 17.96L16.59 3.4Z" fill="#252525" fill-opacity="1.000000" fill-rule="evenodd"/>
</svg>
