<svg width="20.327026" height="19.745819" viewBox="0 0 20.327 19.7458" fill="none" xmlns="http://www.w3.org/2000/svg" xmlns:xlink="http://www.w3.org/1999/xlink">
	<desc>
			Created with Pixso.
	</desc>
	<defs>
		<filter id="filter_390_1895_dd" x="0.000000" y="0.000000" width="20.327026" height="19.745819" filterUnits="userSpaceOnUse" color-interpolation-filters="sRGB">
			<feFlood flood-opacity="0" result="BackgroundImageFix"/>
			<feGaussianBlur in="BackgroundImage" stdDeviation="1.4686"/>
			<feComposite in2="SourceAlpha" operator="in" result="effect_backgroundBlur_1"/>
			<feBlend mode="normal" in="SourceGraphic" in2="effect_backgroundBlur_1" result="shape"/>
		</filter>
	</defs>
	<g filter="url(#filter_390_1895_dd)">
		<path id="Rectangle 41020" d="M4.3 19.7L9.79 17.38C9.89 17.33 10.02 17.33 10.13 17.38L15.74 19.71C16.04 19.83 16.37 19.6 16.35 19.28L16.03 13C16.02 12.88 16.06 12.77 16.14 12.68L20.21 8.14C20.43 7.89 20.31 7.5 19.99 7.42L14.07 5.88C13.96 5.86 13.86 5.79 13.8 5.69L10.34 0.2C10.16 -0.08 9.76 -0.07 9.59 0.21L6.35 5.68C6.29 5.78 6.19 5.86 6.08 5.89L0.32 7.4C-0.01 7.49 -0.12 7.9 0.12 8.14L3.07 11.08C3.16 11.18 3.3 11.23 3.44 11.21L9.99 10.31C10.48 10.24 10.69 10.91 10.26 11.14L4.23 14.28C4.1 14.35 4 14.49 3.99 14.64L3.69 19.26C3.67 19.59 4 19.82 4.3 19.7Z" fill="#5A7CD4" fill-opacity="1.000000" fill-rule="nonzero"/>
	</g>
</svg>
