<svg width="56.000000" height="56.016510" viewBox="0 0 56 56.0165" fill="none" xmlns="http://www.w3.org/2000/svg" xmlns:xlink="http://www.w3.org/1999/xlink">
	<desc>
			Created with Pixso.
	</desc>
	<defs/>
	<path id="Vector" d="M27.93 0L28.06 0C43.49 0 56 12.51 56 27.94L56 28.07C56 43.5 43.49 56.01 28.06 56.01L27.93 56.01C12.5 56.01 0 43.5 0 28.07L0 27.94C0 12.51 12.5 0 27.93 0Z" fill="#00B0F2" fill-opacity="1.000000" fill-rule="evenodd"/>
	<path id="Vector" d="M10.6 27.05C10.68 27.01 10.76 26.97 10.83 26.94C12.16 26.32 13.51 25.74 14.86 25.17C14.93 25.17 15.05 25.08 15.12 25.05C15.23 25.01 15.33 24.97 15.43 24.92L16.03 24.66C16.43 24.49 16.83 24.32 17.23 24.15C18.03 23.81 18.83 23.47 19.63 23.13C21.22 22.44 22.82 21.76 24.42 21.07C26.02 20.39 27.62 19.71 29.21 19.02C30.81 18.34 32.41 17.66 34.01 16.97C35.6 16.29 37.2 15.61 38.8 14.92C39.15 14.77 39.54 14.54 39.92 14.47C40.24 14.42 40.55 14.31 40.87 14.25C41.48 14.13 42.16 14.08 42.74 14.34C42.94 14.43 43.13 14.55 43.28 14.7C44.03 15.44 43.92 16.64 43.76 17.68C42.67 24.87 41.58 32.07 40.48 39.26C40.33 40.25 40.13 41.33 39.35 41.96C38.69 42.48 37.75 42.54 36.94 42.32C36.13 42.09 35.41 41.62 34.7 41.16C31.78 39.22 28.86 37.29 25.94 35.35C25.24 34.89 24.47 34.29 24.48 33.46C24.48 32.95 24.78 32.51 25.09 32.11C27.63 28.8 31.29 26.52 34.02 23.36C34.4 22.91 34.7 22.11 34.17 21.85C33.86 21.7 33.5 21.91 33.21 22.11C29.61 24.61 26.01 27.11 22.41 29.61C21.23 30.43 20 31.27 18.58 31.47C17.32 31.65 16.04 31.3 14.82 30.94C13.79 30.63 12.76 30.32 11.74 30C11.2 29.84 10.63 29.65 10.21 29.27C9.79 28.89 9.55 28.24 9.81 27.73C9.97 27.41 10.27 27.21 10.6 27.05L10.6 27.05Z" fill="#FEFFFC" fill-opacity="1.000000" fill-rule="nonzero"/>
</svg>
